Coordinates
version=1
nRows=28
nColumns=38
inDegrees=no

Units are S.I. units (second, meters, Newtons, ...)
If the header above contains a line with 'inDegrees', this indicates whether rotational values are in degrees (yes) or radians (no).

endheader
time	pelvis_tilt	pelvis_list	pelvis_rotation	pelvis_tx	pelvis_ty	pelvis_tz	hip_flexion_r	hip_adduction_r	hip_rotation_r	knee_angle_r	ankle_angle_r	subtalar_angle_r	mtp_angle_r	hip_flexion_l	hip_adduction_l	hip_rotation_l	knee_angle_l	ankle_angle_l	subtalar_angle_l	mtp_angle_l	lumbar_extension	lumbar_bending	lumbar_rotation	arm_flex_r	arm_add_r	arm_rot_r	elbow_flex_r	pro_sup_r	wrist_flex_r	wrist_dev_r	arm_flex_l	arm_add_l	arm_rot_l	elbow_flex_l	pro_sup_l	wrist_flex_l	wrist_dev_l
20	-0.0015784	1.45992	1.74722	0.633123	0.494413	0.791324	0.817241	-0.241508	-0.116423	1.43245	0.523599	0	0	0.87078	0.0729974	-0.00081669	1.44858	0.523599	0	0	-0.319343	0.191236	-0.0340302	0.161505	-0.375346	0.15703	0.391388	1.5708	0	0	-0.209877	-0.246082	0.203077	0.943613	1.15444	0	0
20.01	0.00766293	1.45874	1.73947	0.63298	0.494238	0.790441	0.819973	-0.240748	-0.115397	1.43523	0.523599	0	0	0.874434	0.0746698	0.00172108	1.45208	0.523599	0	0	-0.319949	0.193714	-0.0332918	0.160826	-0.372308	0.14684	0.390689	1.5708	0	0	-0.213017	-0.246767	0.206499	0.946212	1.15135	0	0
20.02	0.0138257	1.4576	1.7346	0.632788	0.494091	0.789598	0.822501	-0.241195	-0.115642	1.4378	0.523599	0	0	0.877732	0.076946	0.00400595	1.45506	0.523599	0	0	-0.320726	0.196083	-0.0324541	0.160387	-0.36939	0.136587	0.38991	1.5708	0	0	-0.215627	-0.245524	0.206646	0.946313	1.15076	0	0
20.03	0.0193375	1.45683	1.72999	0.63262	0.494015	0.788795	0.82454	-0.241427	-0.11574	1.44035	0.523599	0	0	0.880483	0.0788917	0.00593673	1.45795	0.523599	0	0	-0.321908	0.198339	-0.0311966	0.160277	-0.366659	0.127357	0.388669	1.5708	0	0	-0.217908	-0.244122	0.206614	0.945702	1.14976	0	0
20.04	0.0250926	1.45626	1.72493	0.632479	0.494	0.788018	0.826286	-0.241503	-0.115841	1.44275	0.523599	0	0	0.882872	0.0805403	0.00780686	1.46078	0.523599	0	0	-0.323262	0.200669	-0.0293196	0.160144	-0.364136	0.11821	0.38738	1.5708	0	0	-0.219469	-0.242708	0.207211	0.944208	1.14842	0	0
20.05	0.0333043	1.45582	1.7175	0.632317	0.494013	0.78723	0.827812	-0.241485	-0.116266	1.44519	0.523599	0	0	0.88518	0.0819575	0.0100261	1.464	0.523599	0	0	-0.324664	0.203386	-0.0275373	0.160624	-0.361719	0.109594	0.385421	1.5708	0	0	-0.221038	-0.241404	0.208013	0.942997	1.14615	0	0
20.06	0.0423554	1.45573	1.70929	0.632128	0.494065	0.786435	0.828995	-0.241592	-0.116973	1.4478	0.523599	0	0	0.887121	0.0832192	0.0121525	1.46717	0.523599	0	0	-0.326197	0.20624	-0.0257544	0.161436	-0.35925	0.100275	0.382769	1.5708	0	0	-0.22258	-0.240444	0.209486	0.942165	1.14269	0	0
20.07	0.052955	1.45588	1.69974	0.631914	0.494179	0.785652	0.829786	-0.241828	-0.118104	1.45051	0.523599	0	0	0.888759	0.0843381	0.0144588	1.47037	0.523599	0	0	-0.327662	0.209395	-0.0240777	0.163007	-0.356725	0.0906095	0.378514	1.5708	0	0	-0.223813	-0.239496	0.211287	0.941048	1.13831	0	0
20.08	0.0644326	1.45621	1.68907	0.63171	0.494335	0.78488	0.83033	-0.241922	-0.119305	1.45325	0.523599	0	0	0.890225	0.0851082	0.0167393	1.47393	0.523599	0	0	-0.329217	0.212759	-0.0221731	0.164903	-0.354704	0.083179	0.37399	1.5708	0	0	-0.2247	-0.238357	0.213153	0.939384	1.13472	0	0
20.09	0.0765876	1.45692	1.67733	0.631537	0.494519	0.784106	0.830532	-0.241649	-0.120343	1.456	0.523599	0	0	0.89129	0.085306	0.0187013	1.47777	0.523599	0	0	-0.331078	0.216081	-0.019939	0.166897	-0.35367	0.0828073	0.369715	1.55444	0	0	-0.225457	-0.237415	0.215279	0.937255	1.13168	0	0
20.1	0.0895077	1.45776	1.66462	0.631394	0.494716	0.783277	0.830714	-0.241194	-0.121358	1.45888	0.523599	0	0	0.892256	0.0850557	0.0204204	1.48179	0.523599	0	0	-0.33298	0.219299	-0.0173771	0.169052	-0.353032	0.0846264	0.365045	1.52574	0	0	-0.22597	-0.236897	0.218259	0.935384	1.12726	0	0
20.11	0.103835	1.45848	1.65093	0.631194	0.494966	0.78238	0.830755	-0.241127	-0.122873	1.46189	0.523599	0	0	0.89326	0.0849361	0.02219	1.48562	0.523599	0	0	-0.334437	0.222776	-0.0151224	0.17103	-0.352495	0.0861662	0.360404	1.49827	0	0	-0.226223	-0.236519	0.221805	0.93347	1.12231	0	0
20.12	0.119241	1.4594	1.63643	0.630941	0.495257	0.781442	0.830446	-0.241379	-0.124734	1.46506	0.523599	0	0	0.894086	0.0849415	0.0242015	1.48982	0.523599	0	0	-0.335724	0.226502	-0.0127554	0.171824	-0.353214	0.0959103	0.357843	1.44647	0	0	-0.225916	-0.236884	0.227861	0.931861	1.11139	0	0
20.13	0.136616	1.46038	1.62034	0.630653	0.495609	0.780481	0.829846	-0.241911	-0.127139	1.46834	0.523599	0	0	0.894896	0.0849198	0.0263262	1.49399	0.523599	0	0	-0.336867	0.230536	-0.0100738	0.172593	-0.352778	0.0959198	0.353888	1.41244	0	0	-0.22509	-0.237198	0.233731	0.929135	1.10553	0	0
20.14	0.155871	1.46147	1.60226	0.630375	0.495976	0.779499	0.829067	-0.242057	-0.129444	1.47167	0.523599	0	0	0.895648	0.0845927	0.0284623	1.49841	0.523599	0	0	-0.33815	0.23465	-0.00664907	0.17321	-0.352552	0.0970892	0.349329	1.37855	0	0	-0.223869	-0.237875	0.240304	0.92698	1.10046	0	0
20.15	0.176078	1.46248	1.58288	0.630105	0.496356	0.778471	0.828507	-0.24185	-0.13155	1.47513	0.523599	0	0	0.896451	0.0839143	0.0304438	1.50298	0.523599	0	0	-0.339474	0.238704	-0.0024836	0.173874	-0.352689	0.101243	0.343807	1.34803	0	0	-0.222452	-0.238566	0.246628	0.925215	1.09706	0	0
20.16	0.197177	1.46367	1.56254	0.629824	0.496751	0.777417	0.827866	-0.241553	-0.133515	1.47859	0.523599	0	0	0.897002	0.0831609	0.0324705	1.5077	0.523599	0	0	-0.340881	0.242827	0.00164386	0.17362	-0.355152	0.1255	0.341172	1.2852	0	0	-0.221125	-0.239663	0.253928	0.923358	1.09096	0	0
20.17	0.217436	1.46492	1.54296	0.629556	0.497169	0.776363	0.827055	-0.241246	-0.13517	1.48195	0.523599	0	0	0.897358	0.0824398	0.0342981	1.51241	0.523599	0	0	-0.34248	0.246766	0.0062288	0.174111	-0.355648	0.137254	0.336197	1.24674	0	0	-0.219512	-0.240768	0.261049	0.921636	1.08732	0	0
20.18	0.236863	1.46637	1.52412	0.629288	0.497583	0.775318	0.826051	-0.24095	-0.136637	1.4855	0.523599	0	0	0.897439	0.0817145	0.0358136	1.51694	0.523599	0	0	-0.344292	0.250526	0.0110172	0.174149	-0.356173	0.152762	0.3319	1.20186	0	0	-0.217573	-0.242296	0.269066	0.920512	1.08257	0	0
20.19	0.255143	1.46783	1.50646	0.629012	0.497995	0.774267	0.825075	-0.240893	-0.138141	1.48925	0.523599	0	0	0.897416	0.0811742	0.0373263	1.52151	0.523599	0	0	-0.346118	0.254044	0.0158915	0.174945	-0.355064	0.16078	0.325107	1.17259	0	0	-0.215413	-0.243936	0.276734	0.919541	1.08048	0	0
20.2	0.272227	1.46925	1.48993	0.628716	0.498401	0.773207	0.824063	-0.240909	-0.139451	1.493	0.523599	0	0	0.897407	0.0808226	0.0387651	1.52605	0.523599	0	0	-0.347883	0.257384	0.0206408	0.176056	-0.353542	0.168011	0.317636	1.1511	0	0	-0.213237	-0.245305	0.283357	0.918455	1.08023	0	0
20.21	0.285394	1.47055	1.47684	0.628472	0.498813	0.772195	0.823406	-0.240539	-0.139782	1.4965	0.523599	0	0	0.897397	0.0804122	0.0395959	1.53029	0.523599	0	0	-0.349746	0.259924	0.0270368	0.179938	-0.346011	0.126977	0.300158	1.19365	0	0	-0.209252	-0.248367	0.296084	0.917236	1.06889	0	0
20.22	0.298803	1.47179	1.46334	0.628212	0.499186	0.771202	0.822882	-0.239903	-0.139705	1.49973	0.523599	0	0	0.897497	0.0799907	0.040345	1.53456	0.523599	0	0	-0.351489	0.262482	0.0321873	0.182268	-0.343298	0.122352	0.288883	1.18736	0	0	-0.206822	-0.249863	0.302886	0.91664	1.06625	0	0
20.23	0.308014	1.47311	1.4541	0.627929	0.499591	0.770247	0.822441	-0.239976	-0.139557	1.50315	0.523599	0	0	0.897454	0.0800537	0.0407608	1.53866	0.523599	0	0	-0.353014	0.264534	0.0366694	0.184026	-0.340705	0.115905	0.278831	1.17996	0	0	-0.204868	-0.250997	0.307982	0.916588	1.06391	0	0
20.24	0.317036	1.47428	1.44505	0.627612	0.499991	0.769337	0.822143	-0.240024	-0.139296	1.50644	0.523599	0	0	0.897363	0.0801935	0.0411502	1.54245	0.523599	0	0	-0.354154	0.266629	0.0403379	0.185631	-0.339139	0.117395	0.269726	1.16019	0	0	-0.203435	-0.251462	0.311077	0.915629	1.06905	0	0
20.25	0.326252	1.47535	1.43574	0.627277	0.500368	0.768495	0.821922	-0.239883	-0.138885	1.50945	0.523599	0	0	0.897121	0.0803027	0.0415556	1.54584	0.523599	0	0	-0.355299	0.268744	0.0449886	0.186687	-0.335107	0.0897402	0.260712	1.15225	0	0	-0.200551	-0.253255	0.319923	0.914315	1.06068	0	0
20.26	0.336016	1.47633	1.42571	0.626931	0.500722	0.767717	0.821628	-0.239424	-0.138355	1.51213	0.523599	0	0	0.896825	0.0802871	0.041964	1.54897	0.523599	0	0	-0.356448	0.271004	0.0491601	0.186544	-0.333009	0.0731623	0.255583	1.1389	0	0	-0.198439	-0.253845	0.324397	0.912864	1.05826	0	0
20.27	0.344033	1.47737	1.41717	0.626576	0.50105	0.767024	0.821216	-0.238841	-0.13746	1.51451	0.523599	0	0	0.896402	0.0802892	0.0420369	1.55189	0.523599	0	0	-0.357744	0.273067	0.0523603	0.186103	-0.332468	0.0682953	0.252739	1.12597	0	0	-0.197476	-0.253343	0.324722	0.912119	1.06308	0	0
